PathFileType	4	(X/Y/Z)	/Users/mathieubourgeois/Desktop/Analyse/Traitement/Sujet_03/Data/Transformed_Sujet_03_velo_100.trc
DataRate	CameraRate	NumFrames	NumMarkers	Units	OrigDataRate	OrigDataStartFrame	OrigNumFrames
120.000000	120.000000	4	36	mm	120.000000	0	1890
Frame#	Time	RFHD			LFHD			RBHD			LBHD			C7			CLAV			RSHO			LSHO			STRN			T10			RBWT			LBWT			RFWT			LFWT			RKNI			LKNI			RKNE			LKNE			LANI			RANI			LANE			RANE			LTOE			RTOE			LHEE			RHEE			RHUM			LHUM			RRAD			LRAD			RWRA			RWRB			LWRA			LWRB			LCAR			RCAR			
		X1	Y1	Z1	X2	Y2	Z2	X3	Y3	Z3	X4	Y4	Z4	X5	Y5	Z5	X6	Y6	Z6	X7	Y7	Z7	X8	Y8	Z8	X9	Y9	Z9	X10	Y10	Z10	X11	Y11	Z11	X12	Y12	Z12	X13	Y13	Z13	X14	Y14	Z14	X15	Y15	Z15	X16	Y16	Z16	X17	Y17	Z17	X18	Y18	Z18	X19	Y19	Z19	X20	Y20	Z20	X21	Y21	Z21	X22	Y22	Z22	X23	Y23	Z23	X24	Y24	Z24	X25	Y25	Z25	X26	Y26	Z26	X27	Y27	Z27	X28	Y28	Z28	X29	Y29	Z29	X30	Y30	Z30	X31	Y31	Z31	X32	Y32	Z32	X33	Y33	Z33	X34	Y34	Z34	X35	Y35	Z35	X36	Y36	Z36	

1	0	146.096435546875	1568.020385742188	96.04879760742179	134.3564758300781	1563.379638671875	-57.58742904663094	33.52476882934569	1636.766235351562	105.8244476318358	12.31841945648194	1648.47021484375	-44.70530319213877	-111.7712631225586	1553.404296875	27.85097122192372	-66.38658142089844	1396.62646484375	29.62194824218741	-51.89507675170901	1493.841552734375	200.6721191406249	-76.43476104736327	1510.83935546875	-153.0568084716798	-165.0021667480469	1257.440551757812	31.56130409240713	-325.6444702148438	1451.09521484375	35.06837463378893	-521.9776000976562	1266.578125	122.6374511718749	-532.04833984375	1266.224975585938	-1.439608931541585	-372.2251281738281	1190.194458007812	179.3239593505858	-383.786376953125	1185.965698242188	-66.94149017333996	-180.3809204101563	692.667236328125	123.8898239135741	-57.69339752197265	877.9532470703125	-56.64036178588874	-189.5789947509766	743.4550170898438	238.9390563964843	-58.60127639770506	919.17138671875	-167.1185607910157	-345.6539916992188	642.4573974609375	-62.06888580322274	-218.7692260742188	317.1383361816406	124.185676574707	-368.1225891113281	621.8157348632812	-149.3667144775391	-237.6090698242188	300.6043090820312	214.1337738037109	-228.5098266601562	492.2195434570312	-89.63847351074224	-64.0595169067383	177.3570098876953	143.1799011230469	-443.4114990234375	636.2615356445312	-111.3385238647462	-309.5060119628906	286.9581604003906	176.6826171874999	2.757521629333468	1190.203857421875	232.023223876953	-1.751035451889019	1193.025512695312	-153.8246154785157	54.79105377197262	1211.493408203125	289.4733276367187	43.92898178100589	1222.634155273438	-216.9449157714845	264.4351806640625	1047.504638671875	214.9196166992187	240.6388702392578	1025.973876953125	289.5428466796875	241.2909545898438	1066.11181640625	-129.1316680908203	212.6910247802735	1036.374267578125	-199.5025329589844	306.3416137695312	1026.35595703125	-227.5891876220703	342.5619201660156	1008.995361328125	304.6776123046875	
2	0.008333333333333333	146.6191558837891	1568.377197265625	95.31109619140616	134.7263031005859	1563.495727539062	-58.66667175292977	33.95930862426756	1637.169555664062	104.6876373291015	12.42187690734864	1648.327392578125	-42.61185073852549	-111.4056167602539	1553.735473632812	26.83171463012684	-66.05094146728516	1396.995361328125	28.59644508361807	-51.41532897949221	1494.267578125	199.5722351074218	-76.20219421386717	1511	-154.0294036865235	-164.4393463134766	1257.762817382812	30.65626335144033	-325.1828308105469	1451.386840820312	34.72444534301744	-523.437255859375	1267.099487304688	123.7952804565428	-532.0977172851562	1267.016845703125	-1.598515868187093	-372.1876525878906	1190.0517578125	179.1666717529295	-383.5240173339844	1186.75439453125	-67.18542480468761	-188.0294189453125	687.685546875	123.1986846923827	-52.13361358642577	889.1563720703125	-56.47447586059577	-196.579574584961	738.7601318359375	238.3095397949218	-53.73064041137693	930.0806884765625	-167.0420379638672	-334.7681274414062	647.4270629882812	-62.23940277099618	-231.0467376708985	312.6367797851562	124.0143127441406	-356.6822509765625	626.454833984375	-149.1775360107423	-250.277328491211	296.479248046875	213.9807891845703	-214.0889739990234	500.3796081542969	-89.54917144775396	-79.04412078857423	169.6600494384766	143.3215789794922	-434.0750122070312	638.9693603515625	-108.5737228393556	-322.1884765625	284.2413635253906	176.4103393554687	3.162341833114596	1190.636352539062	231.1549072265624	-1.483484029769879	1193.229614257812	-154.2650909423829	55.07435989379879	1211.8681640625	288.7248229980468	44.20581817626956	1222.710571289062	-217.4043121337891	264.5469055175781	1047.541015625	214.5714263916015	240.6630706787109	1026.0791015625	289.1758422851562	241.3883209228516	1066.054077148438	-129.4472808837891	212.5640106201172	1035.726806640625	-199.3453826904297	306.395751953125	1026.202270507812	-227.8517456054688	342.6016845703124	1009.094177246094	304.4150695800781	
3	0.01666666666666667	147.0003356933594	1568.681762695312	94.36058044433585	135.0316772460938	1563.635620117188	-59.69803619384773	34.37675857543944	1637.587524414062	103.609031677246	11.38276958465577	1648.407348632812	-42.03054809570322	-111.0626831054688	1554.036987304688	25.89472579956044	-65.71123504638672	1397.34814453125	27.62226295471182	-50.86364746093752	1494.662963867188	198.5714111328124	-75.95672607421874	1511.160888671875	-154.9310455322266	-164.1040496826172	1258.046997070312	29.84752464294424	-324.801025390625	1451.724975585938	34.42357635498033	-521.6253051757812	1267.095947265625	122.220489501953	-532.1068115234375	1267.728759765625	-1.895879030227804	-372.2477416992188	1190.063110351562	179.0291595458983	-383.3353271484375	1187.637817382812	-67.42311859130871	-194.8720397949219	683.650634765625	122.538475036621	-46.89372253417968	899.7979736328125	-56.174301147461	-202.7396545410157	735.0259399414062	237.5862274169921	-49.51070022583006	940.3450317382812	-166.7738189697266	-323.4223022460938	651.46044921875	-62.17309570312509	-243.7150268554688	309.2359313964844	123.6890563964843	-344.7957763671875	629.4026489257812	-148.9638061523438	-263.3753356933594	293.5887451171875	213.6952209472656	-198.7971801757812	507.3082275390625	-89.52028656005865	-94.4594192504883	163.4105834960938	143.4783477783203	-420.0370178222656	639.5772705078125	-111.1361846923829	-335.3116760253906	282.71337890625	176.0795898437499	3.505325078964205	1191.060180664062	230.382339477539	-1.204894423484783	1193.460083007812	-154.6934356689454	55.32254028320309	1212.20654296875	288.0752868652343	44.5183029174805	1222.81103515625	-217.8859100341798	264.6817932128906	1047.58642578125	214.2357330322265	240.7062072753906	1026.17724609375	288.8457946777344	241.528793334961	1065.978149414062	-129.7590789794922	212.670883178711	1035.567138671875	-199.6486358642578	306.4693298339844	1026.057495117188	-228.1695251464844	342.6643981933593	1009.190002441406	304.1341552734375	
4	0.025	146.8497161865234	1568.540283203125	93.83982086181632	135.3037872314453	1563.7568359375	-60.63652038574227	34.77329635620116	1638.005126953125	102.6640014648437	13.21595859527588	1648.8359375	-44.57315826416026	-110.7011489868164	1554.329345703125	25.06375312805165	-65.44276428222656	1397.715942382812	26.87171936035147	-50.32315826416018	1495.011596679688	197.7084503173827	-75.67430877685545	1511.310791015625	-155.719207763672	-163.7256469726562	1258.398071289062	29.18075370788564	-324.4317016601562	1452.10107421875	34.06502914428697	-521.4803466796875	1267.503051757812	121.6326370239257	-532.0103759765625	1268.464965820312	-2.438381433487081	-372.442626953125	1190.29833984375	178.9186248779295	-383.2083740234375	1188.5771484375	-67.73732757568371	-200.6306915283203	680.6856079101562	121.8342819213866	-41.70454025268554	909.3545532226562	-56.79350662231452	-207.975082397461	731.9004516601562	236.9422760009765	-45.96998977661131	949.8250122070312	-166.4010467529297	-309.5984191894531	652.90283203125	-63.97958755493172	-252.6996154785157	309.3028564453125	124.9536514282226	-332.4774169921875	630.4866333007812	-148.7289123535157	-277.1491394042969	292.1277770996094	213.3052215576171	-183.4215545654297	512.6031494140625	-89.7641220092774	-110.9989547729492	158.8135070800781	144.2368927001953	-408.4892578125	638.3718872070312	-110.6302185058595	-349.1414794921875	282.6397399902344	175.5444946289062	3.627753734588595	1191.23828125	228.6523132324218	-0.9034225344657708	1193.697021484375	-155.0775604248048	55.41915512084957	1213.057006835938	287.7377929687499	46.19984436035159	1222.600219726562	-218.2490844726563	266.6393737792969	1047.473266601562	214.1307373046875	240.7720336914062	1026.232666015625	288.492431640625	241.669677734375	1065.91259765625	-130.0916137695313	212.7797088623047	1035.455200195312	-199.945297241211	306.5481262207031	1025.903076171875	-228.4451599121094	342.7681884765624	1009.278381347656	303.7868347167969	
